<svg id="Layer_1" data-name="Layer 1" xmlns="http://www.w3.org/2000/svg" viewBox="0 0 1328.39951 552.43678"><defs><style>.cls-1,.cls-3{fill:#011f30;}.cls-1,.cls-2{stroke:#9835f6;stroke-miterlimit:10;}.cls-1{stroke-width:10px;}.cls-2{fill:#9835f6;stroke-width:2px;}</style></defs><path class="cls-1" d="M1613.55723,520.66762C1246.81941,877.21828,655.85472,868.975,299.30406,502.23714,645.71505,145.92868,1236.681,154.26014,1613.55723,520.66762Z" transform="translate(-292.33051 -235.341)"/><ellipse class="cls-1" cx="664.10013" cy="276.21839" rx="262.32875" ry="271.21839"/><path class="cls-2" d="M896.452,395.64526a377.4453,377.4453,0,0,1,62.51625-4.86667c32.19423,0,55.77742,7.48743,70.75093,20.96372,13.85131,11.97908,22.08737,30.322,22.08738,52.783,0,22.83457-6.73882,40.8039-19.46651,53.90521-17.21932,18.34294-45.29552,27.70262-77.11475,27.70264-9.73327,0-18.71793-.375-26.204-2.24581l.00005,101.07294-32.56923,0Z" transform="translate(-292.33051 -235.341)"/><circle class="cls-3" cx="724.07873" cy="178.2148" r="35.3973"/></svg>